<svg width="189" height="80" viewBox="0 0 189 80" fill="none" xmlns="http://www.w3.org/2000/svg">
<path d="M89.576 31.896C90.6 31.896 91.512 32.104 92.312 32.52C93.128 32.92 93.768 33.544 94.232 34.392C94.696 35.224 94.928 36.296 94.928 37.608V45H91.184V38.184C91.184 37.144 90.952 36.376 90.488 35.88C90.04 35.384 89.4 35.136 88.568 35.136C87.976 35.136 87.44 35.264 86.96 35.52C86.496 35.76 86.128 36.136 85.856 36.648C85.6 37.16 85.472 37.816 85.472 38.616V45H81.728V32.088H85.304V35.664L84.632 34.584C85.096 33.72 85.76 33.056 86.624 32.592C87.488 32.128 88.472 31.896 89.576 31.896ZM104.488 49.848C103.272 49.848 102.096 49.696 100.96 49.392C99.8395 49.104 98.9035 48.664 98.1515 48.072L99.6395 45.384C100.184 45.832 100.872 46.184 101.704 46.44C102.552 46.712 103.384 46.848 104.2 46.848C105.528 46.848 106.488 46.552 107.08 45.96C107.688 45.368 107.992 44.488 107.992 43.32V41.376L108.232 38.136L108.184 34.872V32.088H111.736V42.84C111.736 45.24 111.112 47.008 109.864 48.144C108.616 49.28 106.824 49.848 104.488 49.848ZM103.912 44.376C102.712 44.376 101.624 44.12 100.648 43.608C99.6875 43.08 98.9115 42.352 98.3195 41.424C97.7435 40.48 97.4555 39.384 97.4555 38.136C97.4555 36.872 97.7435 35.776 98.3195 34.848C98.9115 33.904 99.6875 33.176 100.648 32.664C101.624 32.152 102.712 31.896 103.912 31.896C105 31.896 105.96 32.12 106.792 32.568C107.624 33 108.272 33.68 108.736 34.608C109.2 35.52 109.432 36.696 109.432 38.136C109.432 39.56 109.2 40.736 108.736 41.664C108.272 42.576 107.624 43.256 106.792 43.704C105.96 44.152 105 44.376 103.912 44.376ZM104.656 41.304C105.312 41.304 105.896 41.176 106.408 40.92C106.92 40.648 107.32 40.272 107.608 39.792C107.896 39.312 108.04 38.76 108.04 38.136C108.04 37.496 107.896 36.944 107.608 36.48C107.32 36 106.92 35.632 106.408 35.376C105.896 35.104 105.312 34.968 104.656 34.968C104 34.968 103.416 35.104 102.904 35.376C102.392 35.632 101.984 36 101.68 36.48C101.392 36.944 101.248 37.496 101.248 38.136C101.248 38.76 101.392 39.312 101.68 39.792C101.984 40.272 102.392 40.648 102.904 40.92C103.416 41.176 104 41.304 104.656 41.304ZM121.364 45.192C119.988 45.192 118.764 44.904 117.692 44.328C116.636 43.752 115.796 42.968 115.172 41.976C114.564 40.968 114.26 39.824 114.26 38.544C114.26 37.248 114.564 36.104 115.172 35.112C115.796 34.104 116.636 33.32 117.692 32.76C118.764 32.184 119.988 31.896 121.364 31.896C122.724 31.896 123.94 32.184 125.012 32.76C126.084 33.32 126.924 34.096 127.532 35.088C128.14 36.08 128.444 37.232 128.444 38.544C128.444 39.824 128.14 40.968 127.532 41.976C126.924 42.968 126.084 43.752 125.012 44.328C123.94 44.904 122.724 45.192 121.364 45.192ZM121.364 42.12C121.988 42.12 122.548 41.976 123.044 41.688C123.54 41.4 123.932 40.992 124.22 40.464C124.508 39.92 124.652 39.28 124.652 38.544C124.652 37.792 124.508 37.152 124.22 36.624C123.932 36.096 123.54 35.688 123.044 35.4C122.548 35.112 121.988 34.968 121.364 34.968C120.74 34.968 120.18 35.112 119.684 35.4C119.188 35.688 118.788 36.096 118.484 36.624C118.196 37.152 118.052 37.792 118.052 38.544C118.052 39.28 118.196 39.92 118.484 40.464C118.788 40.992 119.188 41.4 119.684 41.688C120.18 41.976 120.74 42.12 121.364 42.12ZM136.491 45.192C135.275 45.192 134.179 44.92 133.203 44.376C132.227 43.816 131.451 43.04 130.875 42.048C130.315 41.056 130.035 39.888 130.035 38.544C130.035 37.184 130.315 36.008 130.875 35.016C131.451 34.024 132.227 33.256 133.203 32.712C134.179 32.168 135.275 31.896 136.491 31.896C137.579 31.896 138.531 32.136 139.347 32.616C140.163 33.096 140.795 33.824 141.243 34.8C141.691 35.776 141.915 37.024 141.915 38.544C141.915 40.048 141.699 41.296 141.267 42.288C140.835 43.264 140.211 43.992 139.395 44.472C138.595 44.952 137.627 45.192 136.491 45.192ZM137.139 42.12C137.747 42.12 138.299 41.976 138.795 41.688C139.291 41.4 139.683 40.992 139.971 40.464C140.275 39.92 140.427 39.28 140.427 38.544C140.427 37.792 140.275 37.152 139.971 36.624C139.683 36.096 139.291 35.688 138.795 35.4C138.299 35.112 137.747 34.968 137.139 34.968C136.515 34.968 135.955 35.112 135.459 35.4C134.963 35.688 134.563 36.096 134.259 36.624C133.971 37.152 133.827 37.792 133.827 38.544C133.827 39.28 133.971 39.92 134.259 40.464C134.563 40.992 134.963 41.4 135.459 41.688C135.955 41.976 136.515 42.12 137.139 42.12ZM140.523 45V42.36L140.595 38.52L140.355 34.704V27.192H144.099V45H140.523ZM147.564 45V32.088H151.308V45H147.564ZM149.436 30.288C148.748 30.288 148.188 30.088 147.756 29.688C147.324 29.288 147.108 28.792 147.108 28.2C147.108 27.608 147.324 27.112 147.756 26.712C148.188 26.312 148.748 26.112 149.436 26.112C150.124 26.112 150.684 26.304 151.116 26.688C151.548 27.056 151.764 27.536 151.764 28.128C151.764 28.752 151.548 29.272 151.116 29.688C150.7 30.088 150.14 30.288 149.436 30.288ZM162.631 31.896C163.655 31.896 164.567 32.104 165.367 32.52C166.183 32.92 166.823 33.544 167.287 34.392C167.751 35.224 167.983 36.296 167.983 37.608V45H164.239V38.184C164.239 37.144 164.007 36.376 163.543 35.88C163.095 35.384 162.455 35.136 161.623 35.136C161.031 35.136 160.495 35.264 160.015 35.52C159.551 35.76 159.183 36.136 158.911 36.648C158.655 37.16 158.527 37.816 158.527 38.616V45H154.783V32.088H158.359V35.664L157.687 34.584C158.151 33.72 158.815 33.056 159.679 32.592C160.543 32.128 161.527 31.896 162.631 31.896ZM179.752 45.288C178.424 45.288 177.2 45.08 176.08 44.664C174.976 44.232 174.008 43.624 173.176 42.84C172.36 42.056 171.72 41.136 171.256 40.08C170.808 39.024 170.584 37.864 170.584 36.6C170.584 35.336 170.808 34.176 171.256 33.12C171.72 32.064 172.368 31.144 173.2 30.36C174.032 29.576 175.008 28.976 176.128 28.56C177.248 28.128 178.48 27.912 179.824 27.912C181.312 27.912 182.648 28.16 183.832 28.656C185.032 29.152 186.04 29.872 186.856 30.816L184.36 33.12C183.752 32.48 183.088 32.008 182.368 31.704C181.648 31.384 180.864 31.224 180.016 31.224C179.2 31.224 178.456 31.352 177.784 31.608C177.112 31.864 176.528 32.232 176.032 32.712C175.552 33.192 175.176 33.76 174.904 34.416C174.648 35.072 174.52 35.8 174.52 36.6C174.52 37.384 174.648 38.104 174.904 38.76C175.176 39.416 175.552 39.992 176.032 40.488C176.528 40.968 177.104 41.336 177.76 41.592C178.432 41.848 179.168 41.976 179.968 41.976C180.736 41.976 181.48 41.856 182.2 41.616C182.936 41.36 183.648 40.936 184.336 40.344L186.544 43.152C185.632 43.84 184.568 44.368 183.352 44.736C182.152 45.104 180.952 45.288 179.752 45.288ZM182.992 42.648V36.336H186.544V43.152L182.992 42.648Z" fill="url(#paint0_linear_2_19)"/>
<path d="M74.2056 51.6145H5.79422V11.6667C5.79422 10.8181 6.48203 10.1302 7.33063 10.1302H72.6692C73.5177 10.1302 74.2055 10.8181 74.2055 11.6667V51.6145H74.2056Z" fill="#3F5EAB"/>
<path d="M33.073 59.8177H45.7553V68.1381H33.073V59.8177Z" fill="url(#paint1_linear_2_19)"/>
<path d="M21.0938 68.1381H57.7344V69.8698H21.0938V68.1381Z" fill="#CCCCCC"/>
<path d="M9.03561 12.9427H70.9644V48.802H9.03561V12.9427Z" fill="url(#paint2_linear_2_19)"/>
<path d="M70.3256 59.8177H9.67453C7.53156 59.8177 5.79437 58.0805 5.79437 55.9375V51.6145H74.2058V55.9375C74.2056 58.0805 72.4686 59.8177 70.3256 59.8177Z" fill="#E6E6E6"/>
<path d="M50.9981 48.802H29.0019V43.2989C29.0019 39.0992 32.4064 35.6947 36.6061 35.6947H43.3939C47.5936 35.6947 50.9981 39.0992 50.9981 43.2989V48.802Z" fill="white"/>
<path d="M40.0976 34.1278C44.1833 34.1278 47.4955 30.8157 47.4955 26.73C47.4955 22.6443 44.1833 19.3322 40.0976 19.3322C36.0119 19.3322 32.6998 22.6443 32.6998 26.73C32.6998 30.8157 36.0119 34.1278 40.0976 34.1278Z" fill="white"/>
<defs>
<linearGradient id="paint0_linear_2_19" x1="198.5" y1="9.99999" x2="80" y2="61.5" gradientUnits="userSpaceOnUse">
<stop stop-color="#FF7BAC"/>
<stop offset="1" stop-color="#3700A2"/>
</linearGradient>
<linearGradient id="paint1_linear_2_19" x1="39.4141" y1="68.1381" x2="39.4141" y2="59.8177" gradientUnits="userSpaceOnUse">
<stop stop-color="white"/>
<stop offset="1" stop-color="#B3B3B3"/>
</linearGradient>
<linearGradient id="paint2_linear_2_19" x1="15.5531" y1="55.3195" x2="64.4472" y2="6.42547" gradientUnits="userSpaceOnUse">
<stop stop-color="#3700A2"/>
<stop offset="1" stop-color="#FF7BAC"/>
</linearGradient>
</defs>
</svg>
