<svg width="80" height="80" viewBox="0 0 80 80" fill="none" xmlns="http://www.w3.org/2000/svg">
<path d="M74.2056 51.6145H5.79422V11.6667C5.79422 10.8181 6.48203 10.1302 7.33063 10.1302H72.6692C73.5177 10.1302 74.2055 10.8181 74.2055 11.6667V51.6145H74.2056Z" fill="#3F5EAB"/>
<path d="M33.073 59.8177H45.7553V68.1381H33.073V59.8177Z" fill="url(#paint0_linear_2_4)"/>
<path d="M21.0938 68.1381H57.7344V69.8698H21.0938V68.1381Z" fill="#CCCCCC"/>
<path d="M9.03561 12.9427H70.9644V48.802H9.03561V12.9427Z" fill="url(#paint1_linear_2_4)"/>
<path d="M70.3256 59.8177H9.67453C7.53156 59.8177 5.79437 58.0805 5.79437 55.9375V51.6145H74.2058V55.9375C74.2056 58.0805 72.4686 59.8177 70.3256 59.8177Z" fill="#E6E6E6"/>
<path d="M50.9981 48.802H29.0019V43.2989C29.0019 39.0992 32.4064 35.6947 36.6061 35.6947H43.3939C47.5936 35.6947 50.9981 39.0992 50.9981 43.2989V48.802Z" fill="white"/>
<path d="M40.0976 34.1278C44.1833 34.1278 47.4955 30.8157 47.4955 26.73C47.4955 22.6443 44.1833 19.3322 40.0976 19.3322C36.0119 19.3322 32.6998 22.6443 32.6998 26.73C32.6998 30.8157 36.0119 34.1278 40.0976 34.1278Z" fill="white"/>
<defs>
<linearGradient id="paint0_linear_2_4" x1="39.4141" y1="68.1381" x2="39.4141" y2="59.8177" gradientUnits="userSpaceOnUse">
<stop stop-color="white"/>
<stop offset="1" stop-color="#B3B3B3"/>
</linearGradient>
<linearGradient id="paint1_linear_2_4" x1="15.5531" y1="55.3195" x2="64.4472" y2="6.42547" gradientUnits="userSpaceOnUse">
<stop stop-color="#3700A2"/>
<stop offset="1" stop-color="#FF7BAC"/>
</linearGradient>
</defs>
</svg>
