<svg width="133" height="180" viewBox="0 0 133 202" fill="none" xmlns="http://www.w3.org/2000/svg">
<rect x="0.5" y="0.5" width="132" height="201" fill="white" stroke="white"/>
<path d="M14.5 196.5C14.5 196.5 14.9493 177.495 22.5 169.5C32.202 159.227 45.7116 169.476 58 162.5C67.3686 157.181 67.64 146.454 78 143.5C88.5706 140.485 95.4153 153.873 105.5 149.5C116.397 144.775 107.754 124.261 119.5 122.5C124.423 121.762 132 125 132 125V200.5H14.5V196.5Z" fill="#FF7BAC" stroke="#FF7BAC"/>
<path d="M118.5 5C118.5 5 118.051 24.0046 110.5 32C100.798 42.2735 87.2884 32.0237 75 39C65.6314 44.3187 65.36 55.0455 55 58C44.4294 61.0145 37.5847 47.6268 27.5 52C16.6031 56.7254 25.246 77.2386 13.5 79C8.57682 79.7383 1 76.5 1 76.5L1 1L118.5 1V5Z" fill="#3700A2" stroke="#3700A2"/>
<line x1="13.5" y1="15.997" x2="14.5" y2="181.997" stroke="black"/>
<line x1="118.5" y1="15.997" x2="119.5" y2="181.997" stroke="black"/>
<line x1="13" y1="15.5" x2="119" y2="15.5" stroke="black"/>
<line x1="14" y1="181.5" x2="120" y2="181.5" stroke="black"/>
<path d="M17.918 101.12C17.078 101.12 16.354 100.968 15.746 100.664C15.138 100.36 14.666 99.94 14.33 99.404C14.002 98.86 13.838 98.236 13.838 97.532C13.838 96.82 13.958 96.16 14.198 95.552C14.446 94.936 14.798 94.4 15.254 93.944C15.71 93.488 16.258 93.132 16.898 92.876C17.546 92.612 18.266 92.48 19.058 92.48C19.826 92.48 20.494 92.6 21.062 92.84C21.63 93.08 22.086 93.42 22.43 93.86L21.302 94.796C21.022 94.46 20.69 94.22 20.306 94.076C19.93 93.924 19.49 93.848 18.986 93.848C18.442 93.848 17.95 93.94 17.51 94.124C17.07 94.3 16.694 94.552 16.382 94.88C16.07 95.208 15.83 95.592 15.662 96.032C15.494 96.464 15.41 96.932 15.41 97.436C15.41 97.892 15.51 98.296 15.71 98.648C15.91 99 16.21 99.272 16.61 99.464C17.01 99.656 17.506 99.752 18.098 99.752C18.538 99.752 18.95 99.68 19.334 99.536C19.726 99.384 20.094 99.16 20.438 98.864L21.05 100.088C20.634 100.416 20.15 100.672 19.598 100.856C19.054 101.032 18.494 101.12 17.918 101.12ZM19.634 99.848L20.258 96.704H21.734L21.05 100.088L19.634 99.848ZM25.6635 101.084C25.1435 101.084 24.6675 100.972 24.2355 100.748C23.8115 100.524 23.4715 100.204 23.2155 99.788C22.9675 99.364 22.8435 98.856 22.8435 98.264C22.8435 97.72 22.9315 97.22 23.1075 96.764C23.2915 96.308 23.5475 95.912 23.8755 95.576C24.2035 95.24 24.5835 94.98 25.0155 94.796C25.4555 94.612 25.9355 94.52 26.4555 94.52C26.9915 94.52 27.4515 94.616 27.8355 94.808C28.2275 95 28.5235 95.292 28.7235 95.684C28.9235 96.068 29.0155 96.548 28.9995 97.124C28.9835 97.916 28.8395 98.612 28.5675 99.212C28.2955 99.804 27.9155 100.264 27.4275 100.592C26.9395 100.92 26.3515 101.084 25.6635 101.084ZM26.0475 99.8C26.4795 99.8 26.8595 99.7 27.1875 99.5C27.5155 99.292 27.7755 99.008 27.9675 98.648C28.1595 98.288 28.2555 97.872 28.2555 97.4C28.2555 96.904 28.1075 96.512 27.8115 96.224C27.5155 95.936 27.0995 95.792 26.5635 95.792C26.1395 95.792 25.7595 95.896 25.4235 96.104C25.0955 96.304 24.8355 96.584 24.6435 96.944C24.4515 97.304 24.3555 97.72 24.3555 98.192C24.3555 98.688 24.5035 99.08 24.7995 99.368C25.0955 99.656 25.5115 99.8 26.0475 99.8ZM27.6195 101L27.9075 99.536L28.3155 97.832L28.5195 96.116L28.8195 94.592H30.3195L29.0475 101H27.6195ZM31.0101 101L32.7861 92.096H34.2861L32.5101 101H31.0101ZM37.6949 101.084C37.0549 101.084 36.4989 100.968 36.0269 100.736C35.5549 100.496 35.1869 100.168 34.9229 99.752C34.6669 99.328 34.5389 98.832 34.5389 98.264C34.5389 97.536 34.6989 96.892 35.0189 96.332C35.3389 95.772 35.7749 95.332 36.3269 95.012C36.8869 94.684 37.5229 94.52 38.2349 94.52C38.8349 94.52 39.3549 94.632 39.7949 94.856C40.2349 95.08 40.5749 95.404 40.8149 95.828C41.0629 96.244 41.1869 96.744 41.1869 97.328C41.1869 97.48 41.1789 97.636 41.1629 97.796C41.1469 97.956 41.1229 98.104 41.0909 98.24H35.6549L35.8229 97.244H40.3829L39.7709 97.58C39.8349 97.172 39.8069 96.832 39.6869 96.56C39.5669 96.288 39.3749 96.08 39.1109 95.936C38.8469 95.792 38.5309 95.72 38.1629 95.72C37.7229 95.72 37.3389 95.824 37.0109 96.032C36.6909 96.232 36.4429 96.52 36.2669 96.896C36.0909 97.264 36.0029 97.696 36.0029 98.192C36.0029 98.712 36.1509 99.112 36.4469 99.392C36.7509 99.672 37.2189 99.812 37.8509 99.812C38.2109 99.812 38.5549 99.756 38.8829 99.644C39.2109 99.524 39.4829 99.36 39.6989 99.152L40.3229 100.196C39.9869 100.492 39.5869 100.716 39.1229 100.868C38.6669 101.012 38.1909 101.084 37.6949 101.084ZM41.9085 101L43.1805 94.592H44.6085L44.2485 96.416L44.1165 95.888C44.4125 95.368 44.7885 95.012 45.2445 94.82C45.7005 94.62 46.2565 94.52 46.9125 94.52L46.6365 95.948C46.5725 95.932 46.5125 95.924 46.4565 95.924C46.4005 95.916 46.3365 95.912 46.2645 95.912C45.6805 95.912 45.1965 96.068 44.8125 96.38C44.4285 96.684 44.1725 97.172 44.0445 97.844L43.4085 101H41.9085ZM46.889 101L48.161 94.592H49.661L48.389 101H46.889ZM49.253 93.536C48.981 93.536 48.761 93.456 48.593 93.296C48.433 93.128 48.353 92.928 48.353 92.696C48.353 92.424 48.445 92.196 48.629 92.012C48.821 91.828 49.069 91.736 49.373 91.736C49.637 91.736 49.853 91.816 50.021 91.976C50.189 92.128 50.273 92.316 50.273 92.54C50.273 92.836 50.181 93.076 49.997 93.26C49.813 93.444 49.565 93.536 49.253 93.536ZM53.8182 101L55.4982 92.6H58.7382C59.7542 92.6 60.5382 92.824 61.0902 93.272C61.6502 93.72 61.9302 94.34 61.9302 95.132C61.9302 95.844 61.7662 96.46 61.4382 96.98C61.1182 97.492 60.6582 97.888 60.0582 98.168C59.4582 98.44 58.7462 98.576 57.9222 98.576H55.1862L56.0142 97.832L55.3782 101H53.8182ZM55.9782 98.012L55.4262 97.256H57.9822C58.7342 97.256 59.3182 97.088 59.7342 96.752C60.1502 96.416 60.3582 95.924 60.3582 95.276C60.3582 94.82 60.2022 94.48 59.8902 94.256C59.5862 94.032 59.1462 93.92 58.5702 93.92H56.1342L56.9502 93.14L55.9782 98.012ZM65.4566 101.084C64.8166 101.084 64.2606 100.968 63.7886 100.736C63.3166 100.496 62.9486 100.168 62.6846 99.752C62.4286 99.328 62.3006 98.832 62.3006 98.264C62.3006 97.536 62.4606 96.892 62.7806 96.332C63.1006 95.772 63.5366 95.332 64.0886 95.012C64.6486 94.684 65.2846 94.52 65.9966 94.52C66.5966 94.52 67.1166 94.632 67.5566 94.856C67.9966 95.08 68.3366 95.404 68.5766 95.828C68.8246 96.244 68.9486 96.744 68.9486 97.328C68.9486 97.48 68.9406 97.636 68.9246 97.796C68.9086 97.956 68.8846 98.104 68.8526 98.24H63.4166L63.5846 97.244H68.1446L67.5326 97.58C67.5966 97.172 67.5686 96.832 67.4486 96.56C67.3286 96.288 67.1366 96.08 66.8726 95.936C66.6086 95.792 66.2926 95.72 65.9246 95.72C65.4846 95.72 65.1006 95.824 64.7726 96.032C64.4526 96.232 64.2046 96.52 64.0286 96.896C63.8526 97.264 63.7646 97.696 63.7646 98.192C63.7646 98.712 63.9126 99.112 64.2086 99.392C64.5126 99.672 64.9806 99.812 65.6126 99.812C65.9726 99.812 66.3166 99.756 66.6446 99.644C66.9726 99.524 67.2446 99.36 67.4606 99.152L68.0846 100.196C67.7486 100.492 67.3486 100.716 66.8846 100.868C66.4286 101.012 65.9526 101.084 65.4566 101.084ZM74.4343 94.52C74.9863 94.52 75.4543 94.632 75.8383 94.856C76.2223 95.08 76.4903 95.412 76.6423 95.852C76.8023 96.284 76.8183 96.816 76.6903 97.448L75.9823 101H74.4823L75.1783 97.484C75.2823 96.964 75.2343 96.56 75.0343 96.272C74.8343 95.976 74.4703 95.828 73.9423 95.828C73.3903 95.828 72.9343 95.98 72.5743 96.284C72.2143 96.588 71.9703 97.052 71.8423 97.676L71.1703 101H69.6703L70.9423 94.592H72.3703L72.0103 96.416L71.7703 95.84C72.0743 95.384 72.4543 95.052 72.9103 94.844C73.3743 94.628 73.8823 94.52 74.4343 94.52ZM80.4888 103.412C79.8808 103.412 79.3208 103.336 78.8088 103.184C78.2968 103.04 77.8568 102.824 77.4888 102.536L78.2688 101.408C78.5168 101.624 78.8448 101.796 79.2528 101.924C79.6608 102.06 80.1048 102.128 80.5848 102.128C81.2888 102.128 81.8208 101.972 82.1808 101.66C82.5408 101.356 82.7808 100.896 82.9008 100.28L83.1648 98.96L83.5608 97.604L83.8008 96.152L84.1008 94.592H85.5288L84.4488 100.028C84.2088 101.22 83.7608 102.08 83.1048 102.608C82.4488 103.144 81.5768 103.412 80.4888 103.412ZM80.8608 100.712C80.3088 100.712 79.8168 100.608 79.3848 100.4C78.9528 100.184 78.6128 99.88 78.3648 99.488C78.1168 99.088 77.9928 98.612 77.9928 98.06C77.9928 97.556 78.0808 97.092 78.2568 96.668C78.4408 96.236 78.6928 95.86 79.0128 95.54C79.3408 95.22 79.7248 94.972 80.1648 94.796C80.6128 94.612 81.1008 94.52 81.6288 94.52C82.0928 94.52 82.5208 94.604 82.9128 94.772C83.3048 94.932 83.6168 95.196 83.8488 95.564C84.0808 95.924 84.1888 96.4 84.1728 96.992C84.1568 97.696 84.0168 98.332 83.7528 98.9C83.4888 99.46 83.1128 99.904 82.6248 100.232C82.1368 100.552 81.5488 100.712 80.8608 100.712ZM81.1968 99.44C81.6288 99.44 82.0088 99.348 82.3368 99.164C82.6648 98.972 82.9208 98.712 83.1048 98.384C83.2968 98.048 83.3928 97.672 83.3928 97.256C83.3928 96.8 83.2448 96.444 82.9488 96.188C82.6528 95.924 82.2408 95.792 81.7128 95.792C81.2808 95.792 80.9008 95.888 80.5728 96.08C80.2448 96.264 79.9848 96.52 79.7928 96.848C79.6008 97.176 79.5048 97.552 79.5048 97.976C79.5048 98.432 79.6528 98.792 79.9488 99.056C80.2528 99.312 80.6688 99.44 81.1968 99.44ZM88.8209 103.412C88.2129 103.412 87.6529 103.336 87.1409 103.184C86.6289 103.04 86.1889 102.824 85.8209 102.536L86.6009 101.408C86.8489 101.624 87.1769 101.796 87.5849 101.924C87.9929 102.06 88.4369 102.128 88.9169 102.128C89.6209 102.128 90.1529 101.972 90.5129 101.66C90.8729 101.356 91.1129 100.896 91.2329 100.28L91.4969 98.96L91.8929 97.604L92.1329 96.152L92.4329 94.592H93.8609L92.7809 100.028C92.5409 101.22 92.0929 102.08 91.4369 102.608C90.7809 103.144 89.9089 103.412 88.8209 103.412ZM89.1929 100.712C88.6409 100.712 88.1489 100.608 87.7169 100.4C87.2849 100.184 86.9449 99.88 86.6969 99.488C86.4489 99.088 86.3249 98.612 86.3249 98.06C86.3249 97.556 86.4129 97.092 86.5889 96.668C86.7729 96.236 87.0249 95.86 87.3449 95.54C87.6729 95.22 88.0569 94.972 88.4969 94.796C88.9449 94.612 89.4329 94.52 89.9609 94.52C90.4249 94.52 90.8529 94.604 91.2449 94.772C91.6369 94.932 91.9489 95.196 92.1809 95.564C92.4129 95.924 92.5209 96.4 92.5049 96.992C92.4889 97.696 92.3489 98.332 92.0849 98.9C91.8209 99.46 91.4449 99.904 90.9569 100.232C90.4689 100.552 89.8809 100.712 89.1929 100.712ZM89.5289 99.44C89.9609 99.44 90.3409 99.348 90.6689 99.164C90.9969 98.972 91.2529 98.712 91.4369 98.384C91.6289 98.048 91.7249 97.672 91.7249 97.256C91.7249 96.8 91.5769 96.444 91.2809 96.188C90.9849 95.924 90.5729 95.792 90.0449 95.792C89.6129 95.792 89.2329 95.888 88.9049 96.08C88.5769 96.264 88.3169 96.52 88.1249 96.848C87.9329 97.176 87.8369 97.552 87.8369 97.976C87.8369 98.432 87.9849 98.792 88.2809 99.056C88.5849 99.312 89.0009 99.44 89.5289 99.44ZM97.3089 101.084C96.7729 101.084 96.3129 100.972 95.9289 100.748C95.5529 100.516 95.2849 100.184 95.1249 99.752C94.9649 99.312 94.9489 98.776 95.0769 98.144L95.7849 94.592H97.2849L96.5769 98.108C96.4809 98.628 96.5289 99.036 96.7209 99.332C96.9209 99.62 97.2809 99.764 97.8009 99.764C98.3369 99.764 98.7849 99.612 99.1449 99.308C99.5129 99.004 99.7569 98.54 99.8769 97.916L100.549 94.592H102.037L100.765 101H99.3369L99.6969 99.176L99.9369 99.752C99.6329 100.208 99.2489 100.544 98.7849 100.76C98.3289 100.976 97.8369 101.084 97.3089 101.084ZM107.493 94.52C108.045 94.52 108.513 94.632 108.897 94.856C109.281 95.08 109.549 95.412 109.701 95.852C109.861 96.284 109.877 96.816 109.749 97.448L109.041 101H107.541L108.237 97.484C108.341 96.964 108.293 96.56 108.093 96.272C107.893 95.976 107.529 95.828 107.001 95.828C106.449 95.828 105.993 95.98 105.633 96.284C105.273 96.588 105.029 97.052 104.901 97.676L104.229 101H102.729L104.001 94.592H105.429L105.069 96.416L104.829 95.84C105.133 95.384 105.513 95.052 105.969 94.844C106.433 94.628 106.941 94.52 107.493 94.52ZM113.835 101.084C113.315 101.084 112.839 100.972 112.407 100.748C111.983 100.524 111.643 100.204 111.387 99.788C111.139 99.364 111.015 98.856 111.015 98.264C111.015 97.72 111.103 97.22 111.279 96.764C111.463 96.308 111.719 95.912 112.047 95.576C112.375 95.24 112.755 94.98 113.187 94.796C113.627 94.612 114.107 94.52 114.627 94.52C115.163 94.52 115.623 94.616 116.007 94.808C116.399 95 116.695 95.292 116.895 95.684C117.095 96.068 117.187 96.548 117.171 97.124C117.155 97.916 117.011 98.612 116.739 99.212C116.467 99.804 116.087 100.264 115.599 100.592C115.111 100.92 114.523 101.084 113.835 101.084ZM114.219 99.8C114.651 99.8 115.031 99.7 115.359 99.5C115.687 99.292 115.947 99.008 116.139 98.648C116.331 98.288 116.427 97.872 116.427 97.4C116.427 96.904 116.279 96.512 115.983 96.224C115.687 95.936 115.271 95.792 114.735 95.792C114.311 95.792 113.931 95.896 113.595 96.104C113.267 96.304 113.007 96.584 112.815 96.944C112.623 97.304 112.527 97.72 112.527 98.192C112.527 98.688 112.675 99.08 112.971 99.368C113.267 99.656 113.683 99.8 114.219 99.8ZM115.791 101L116.079 99.536L116.487 97.832L116.691 96.116L116.991 94.592H118.491L117.219 101H115.791Z" fill="black"/>
</svg>
